<svg height="64pt" viewBox="0 0 64 64" width="64pt" xmlns="http://www.w3.org/2000/svg" xmlns:xlink="http://www.w3.org/1999/xlink"><linearGradient id="a" gradientUnits="userSpaceOnUse" x1="30.99899713233" x2="30.99899713233" y1="15.999999" y2="55.34199840159"><stop offset="0" stop-color="#ffe9e7"/><stop offset="1" stop-color="#dd6e96"/></linearGradient><linearGradient id="b" gradientUnits="userSpaceOnUse" x1="31.999998" x2="31.999998" y1="4.9999996875" y2="59.16699537183"><stop offset="0" stop-color="#ff8177"/><stop offset="1" stop-color="#b12a5b"/></linearGradient><path d="m25.007812 56.007812c-.003906-.367187-.003906-1.960937-.007812-3.453124l-.003906-1.550782c-6.730469.914063-8.359375-3.78125-8.375-3.832031-.933594-2.367187-2.210938-3.042969-2.265625-3.070313l-.125-.074218c-.464844-.316406-1.691407-1.15625-1.34375-2.261719.316406-.996094 1.539062-1.101563 2.09375-1.082031 3.074219.214844 4.628906 2.976562 4.691406 3.09375 1.570313 2.691406 3.964844 2.410156 5.511719 1.84375.140625-.6875.367187-1.320313.65625-1.878906-4.953125-.878907-10.570313-3.511719-10.570313-13.101563 0-2.632813.820313-4.960937 2.441407-6.929687-.363282-1.207032-.773438-3.664063.445312-6.765626l.175781-.441406.449219-.144531c.417969-.136719 2.691406-.625 7.359375 2.433594 1.929687-.492188 3.96875-.75 6.074219-.757813 2.117187.007813 4.160156.265625 6.089844.757813 4.667968-3.058594 6.933593-2.566407 7.351562-2.433594l.453125.144531.171875.441406c1.226562 3.097657.8125 5.558594.453125 6.765626 1.617187 1.964843 2.4375 4.292968 2.4375 6.929687 0 9.589844-5.621094 12.21875-10.589844 13.085937.5625 1.066407.867188 2.402344.867188 3.878907 0 1.683593-.003907 7.203125-.011719 8.402343l-2-.015624c.007812-1.195313.011719-6.707032.011719-8.386719 0-2.445313-.941407-3.523438-1.347657-3.875l-1.730468-1.496094 2.273437-.253906c5.207031-.578125 10.527344-2.378907 10.527344-11.339844 0-2.332031-.777344-4.363281-2.3125-6.039063l-.429687-.46875.242187-.585937c.167969-.402344.894531-2.441406-.042969-5.289063-.757812.042969-2.566406.398438-5.582031 2.445313l-.386719.257813-.445312-.121094c-1.863282-.519532-3.9375-.796875-6-.808594-2.050782.011719-4.125.289062-5.984375.808594l-.445313.121094-.382812-.257813c-3.019532-2.042969-4.832032-2.402344-5.59375-2.449219-.933594 2.851563-.207032 4.890625-.039063 5.292969l.242188.585937-.429688.46875c-1.535156 1.683594-2.3125 3.714844-2.3125 6.039063 0 8.957031 5.308594 10.769531 10.503907 11.359375l2.25.257812-1.707032 1.488282c-.371094.324218-1.03125 1.113281-1.253906 2.726562l-.074219.550782-.507812.226562c-1.320313.589844-5.839844 2.160156-8.546875-2.484375-.015625-.027344-.542969-.945313-1.503906-1.558594.648437.640625 1.433593 1.671875 2.070312 3.285157.066406.191406 1.355469 3.625 7.277344 2.339843l1.207031-.261719.011719 3.980469c.003906 1.484375.007812 3.074219.011718 3.441407zm0 0" fill="url(#a)"/><path d="m32 58c-14.335938 0-26-11.664062-26-26s11.664062-26 26-26 26 11.664062 26 26-11.664062 26-26 26zm0-50c-13.234375 0-24 10.765625-24 24s10.765625 24 24 24 24-10.765625 24-24-10.765625-24-24-24zm0 0" fill="url(#b)"/></svg>