<svg height="64pt" viewBox="0 0 64 64" width="64pt" xmlns="http://www.w3.org/2000/svg" xmlns:xlink="http://www.w3.org/1999/xlink"><linearGradient id="a"><stop offset="0" stop-color="#ffe9e7"/><stop offset="1" stop-color="#dd6e96"/></linearGradient><linearGradient id="b" gradientUnits="userSpaceOnUse" x1="18.9999988125" x2="18.9999988125" xlink:href="#a" y1="24.85800030684" y2="49.04099786517"/><linearGradient id="c" gradientUnits="userSpaceOnUse" x1="19.38200064909" x2="19.38200064909" xlink:href="#a" y1="15.42299810583" y2="23.34099947142"/><linearGradient id="d" gradientUnits="userSpaceOnUse" x1="37.38599952384" x2="37.38599952384" xlink:href="#a" y1="14.12500004742" y2="49.52499783492"/><linearGradient id="e" gradientUnits="userSpaceOnUse" x1="31.999998" x2="31.999998" y1="6.49999959375" y2="57.49999640625"><stop offset="0" stop-color="#ff8177"/><stop offset="1" stop-color="#b12a5b"/></linearGradient><g fill-rule="evenodd"><path d="m22 48v-22h-6v22zm0 0" fill="url(#b)"/><path d="m19.359375 23c2.511719 0 4.074219-1.472656 4.074219-3.554688-.046875-2.125-1.5625-3.648437-4.027344-3.648437s-4.078125 1.476563-4.078125 3.601563c0 2.078124 1.566406 3.601562 3.984375 3.601562zm0 0" fill="url(#c)"/><path d="m26.945312 48h7.054688v-12.089844c0-.648437.121094-1.292968.3125-1.757812.519531-1.292969 1.878906-2.632813 3.867188-2.632813 2.605468 0 3.820312 1.988281 3.820312 4.898438v11.582031h6v-12.410156c0-6.660156-3.085938-9.5-7.824219-9.5-3.886719 0-5.125 1.910156-6.074219 3.910156h-.101562v-4h-7.054688c.09375 2-.175781 22-.175781 22zm0 0" fill="url(#d)"/></g><path d="m50 57h-36c-3.859375 0-7-3.140625-7-7v-36c0-3.859375 3.140625-7 7-7h36c3.859375 0 7 3.140625 7 7v36c0 3.859375-3.140625 7-7 7zm-36-48c-2.757812 0-5 2.242188-5 5v36c0 2.757812 2.242188 5 5 5h36c2.757812 0 5-2.242188 5-5v-36c0-2.757812-2.242188-5-5-5zm0 0" fill="url(#e)"/></svg>