<svg height="64pt" viewBox="0 0 64 64" width="64pt" xmlns="http://www.w3.org/2000/svg" xmlns:xlink="http://www.w3.org/1999/xlink"><linearGradient id="a"><stop offset="0" stop-color="#ff8177"/><stop offset="1" stop-color="#b12a5b"/></linearGradient><linearGradient id="b" gradientUnits="userSpaceOnUse" x1="31.999998" x2="31.999998" xlink:href="#a" y1="9.935999" y2="52.194996"/><linearGradient id="c" gradientUnits="userSpaceOnUse" x1="38.902997" x2="38.902997" xlink:href="#a" y1="9.935999" y2="52.194996"/><linearGradient id="d" gradientUnits="userSpaceOnUse" x1="112.875" x2="112.875" y1="48.31856" y2="57.8565"><stop offset="0" stop-color="#ffe9e7"/><stop offset="1" stop-color="#dd6e96"/></linearGradient><path d="m57.59375 16.085938c-.285156-.339844-.761719-.449219-1.167969-.269532-.613281.269532-1.246093.511719-1.890625.71875.824219-1.035156 1.460938-2.21875 1.871094-3.492187.128906-.394531 0-.828125-.324219-1.085938-.324219-.261719-.773437-.296875-1.132812-.085937-1.773438 1.042968-3.671875 1.789062-5.640625 2.226562-2.066406-1.976562-4.859375-3.097656-7.753906-3.097656-6.167969 0-11.1875 4.976562-11.1875 11.097656 0 .402344.019531.808594.066406 1.214844-7.410156-.707031-14.289063-4.34375-19.027344-10.105469-.207031-.25-.519531-.382812-.851562-.359375-.324219.023438-.617188.207032-.78125.488282-.996094 1.675781-1.519532 3.609374-1.519532 5.589843 0 2.449219.804688 4.78125 2.246094 6.679688-.292969-.121094-.578125-.257813-.859375-.410157-.3125-.167968-.6875-.160156-.988281.019532-.300782.183594-.488282.507812-.488282.859375v.121093c0 3.707032 1.867188 7.070313 4.785157 9.101563-.011719 0-.023438-.003906-.035157-.007813-.347656-.0625-.699218.0625-.929687.328126-.230469.265624-.304687.632812-.199219.96875 1.183594 3.644531 4.152344 6.367187 7.769532 7.328124-3 1.773438-6.398438 2.699219-9.957032 2.699219-.785156 0-1.5625-.046875-2.308594-.136719-.464843-.058593-.902343.21875-1.0625.65625-.15625.441407.011719.929688.410157 1.179688 4.839843 3.066406 10.425781 4.6875 16.152343 4.6875 18.773438 0 29.988282-15.117188 29.988282-29.734375 0-.273437-.003906-.542969-.011719-.8125 1.90625-1.421875 3.550781-3.15625 4.894531-5.167969.246094-.371094.222656-.859375-.066406-1.199218zm-6.425781 5.058593c-.28125.195313-.4375.519531-.421875.863281.019531.414063.03125.835938.03125 1.257813 0 13.632813-10.46875 27.734375-27.988282 27.734375-3.980468 0-7.894531-.839844-11.5-2.453125 4.226563-.320313 8.199219-1.847656 11.578126-4.46875.332031-.257813.46875-.699219.335937-1.101563-.136719-.402343-.507813-.675781-.929687-.6875-3.382813-.0625-6.40625-1.949218-7.949219-4.835937 1.113281.039063 2.203125-.097656 3.277343-.390625.445313-.125.75-.539062.734376-1-.019532-.464844-.351563-.855469-.804688-.945312-3.773438-.753907-6.632812-3.773438-7.246094-7.449219 1.125.402343 2.300782.632812 3.46875.667969.460938.011718.847656-.273438.984375-.695313.136719-.425781-.027343-.890625-.398437-1.136719-2.558594-1.699218-4.085938-4.53125-4.085938-7.578125 0-1.132812.210938-2.25.613282-3.285156 5.320312 5.828125 12.785156 9.359375 20.714843 9.757813.328125.023437.617188-.113282.816407-.355469.203124-.242188.28125-.5625.207031-.867188-.160157-.6875-.238281-1.386719-.238281-2.078125 0-5.015625 4.121093-9.097656 9.1875-9.097656 2.539062 0 4.980468 1.046875 6.703124 2.871094.234376.25.578126.359375.914063.296875 1.386719-.265625 2.738281-.671875 4.050781-1.207031-.730468 1.003906-1.667968 1.863281-2.761718 2.511718-.40625.242188-.589844.734375-.433594 1.183594.152344.449219.59375.730469 1.066406.667969.953125-.113281 1.886719-.289063 2.796875-.523438-.832031.863281-1.742187 1.648438-2.722656 2.34375zm0 0" fill="url(#b)"/><path d="m30.773438 45.785156.621093 1.902344c7.121094-2.328125 12.824219-7.914062 15.640625-15.332031l-1.871094-.710938c-1.527343 4.027344-5.429687 11.214844-14.390624 14.140625zm0 0" fill="url(#c)"/><path d="m44 20c0 1.105469-.894531 2-2 2s-2-.894531-2-2 .894531-2 2-2 2 .894531 2 2zm0 0" fill="url(#d)"/></svg>